# xmcd CD database file
#
# Track frame offsets:
#	150
#	23222
#	46719
#	67283
#	88910
#	112182
#	129072
#	152339
#	173090
#	190286
#	212794
#	229126
#	250049
#	269290
#	295380
#
# Disc length: 4276 seconds
#
# Revision: 0
# Processed by: cddbd v1.5.2PL0 Copyright (c) Steve Scherf et al.
# Submitted via: CDex 1.79
#
DISCID=d410b20f
DTITLE=Los Hermanos Moreno - Grandes Exitos
DYEAR=2007
DGENRE=Salsa
TTITLE0=Quimbombom
TTITLE1=Lloraras
TTITLE2=Tu Mama no quiso
TTITLE3=Dale Jamon
TTITLE4=Se me canso el Corazon
TTITLE5=Por alguien como Tu
TTITLE6=No hay Motivo
TTITLE7=Mas alla de todo
TTITLE8=Sin ti no puedo vivir
TTITLE9=Un hombre busca una Mujer
TTITLE10=Para alegrarte la Vida
TTITLE11=Te quiero por que te quiero
TTITLE12=Maria Tomasa
TTITLE13=Medley: Live at Madison Square Garden
TTITLE14=Quimbombom (En Vivo)
EXTD=YEAR: 2007
EXTT0=
EXTT1=
EXTT2=
EXTT3=
EXTT4=
EXTT5=
EXTT6=
EXTT7=
EXTT8=
EXTT9=
EXTT10=
EXTT11=
EXTT12=
EXTT13=
EXTT14=
PLAYORDER=
